{"title":"The Maltese Falcon(1941)","uid":12357411,"size":997355243,"categoryP":"video","categoryS":"movies","magnet":"?xt=urn:btih:e27293dbb70553677d7945df72135552aa04da98&amp;dn=The+Maltese+Falcon%281941%29&amp;tr=udp%3A%2F%2Ftracker.openbittorrent.com%3A80&amp;tr=udp%3A%2F%2Fopen.demonii.com%3A1337&amp;tr=udp%3A%2F%2Ftracker.coppersurfer.tk%3A6969&amp;tr=udp%3A%2F%2Fexodus.desync.com%3A6969","seeders":2,"leechers":0,"uploader":"dascuba","files":1,"time":1441490904,"description":"The Maltese Falcon (1941)\nNot Rated  |  100 min  |  Crime, Drama, Film-Noir  |  18 October 1941 (USA)\n8.2 Your rating:   -/10   Ratings: 8.2/10 from 102,797 users   \nReviews: 329 user | 149 critic\nA private detective takes on a case that involves him with three eccentric criminals, a gorgeous liar, and their quest for a priceless statuette.\n\nDirector: John Huston\nWriters: John Huston (screenplay), Dashiell Hammett (based upon the novel by)\nStars: Humphrey Bogart, Mary Astor, Gladys George |\n\nGeneral\nComplete name                       : C:The Maltese FalconTHE_MALTESE_FALCON.mp4\nFormat                                   : MPEG-4\nFormat profile                           : Base Media\nCodec ID                                 : isom\nFile size                                : 951 MiB\nDuration                                 : 1h 40mn\nOverall bit rate                         : 1 324 Kbps\nMovie name                               : THE_MALTESE_FALCON_DISC_1\nGenre                                    : Mystery\nWriting application                      : Lavf54.6.100\n\nVideo\nID                                       : 1\nFormat                                   : AVC\nFormat/Info                              : Advanced Video Codec\nFormat profile                           : Baseline@L3\nFormat settings, CABAC                   : No\nFormat settings, ReFrames                : 6 frames\nCodec ID                                 : avc1\nCodec ID/Info                            : Advanced Video Coding\nDuration                                 : 1h 40mn\nBit rate                                 : 1 208 Kbps\nWidth                                    : 720 pixels\nHeight                                   : 540 pixels\nDisplay aspect ratio                     : 4:3\nFrame rate mode                          : Constant\nFrame rate                               : 29.970 fps\nColor space                              : YUV\nChroma subsampling                       : 4:2:0\nBit depth                                : 8 bits\nScan type                                : Progressive\nBits/(Pixel*Frame)                       : 0.104\nStream size                              : 868 MiB (91%)\n\nAudio\nID                                       : 2\nFormat                                   : AAC\nFormat/Info                              : Advanced Audio Codec\nFormat profile                           : LC\nCodec ID                                 : 40\nDuration                                 : 1h 40mn\nBit rate mode                            : Constant\nBit rate                                 : 109 Kbps\nChannel(s)                               : 2 channels\nChannel(s)_Original                      : 1 channel\nChannel positions                        : Front: C\nSampling rate                            : 44.1 KHz\nCompression mode                         : Lossy\nStream size                              : 78.6 MiB (8%)","torrent":{"xt":"urn:btih:e27293dbb70553677d7945df72135552aa04da98","amp;dn":"The+Maltese+Falcon%281941%29","amp;tr":["udp%3A%2F%2Ftracker.openbittorrent.com%3A80","udp%3A%2F%2Fopen.demonii.com%3A1337","udp%3A%2F%2Ftracker.coppersurfer.tk%3A6969","udp%3A%2F%2Fexodus.desync.com%3A6969"],"infoHash":"e27293dbb70553677d7945df72135552aa04da98","infoHashBuffer":{"type":"Buffer","data":[226,114,147,219,183,5,83,103,125,121,69,223,114,19,85,82,170,4,218,152]},"announce":[],"urlList":[]}}